<svg width="20" height="20" viewBox="0 0 20 20" fill="none" xmlns="http://www.w3.org/2000/svg">
<path d="M13.2578 12.0508C13.1089 12.0508 12.935 12.0528 12.791 12.0371C12.654 12.0222 12.3779 11.9785 12.1504 11.7559C11.9196 11.53 11.8724 11.2515 11.8564 11.1113C11.8401 10.9672 11.8418 10.7939 11.8418 10.6494V4.96094C11.8418 4.9039 11.8377 4.74483 11.8672 4.60156C11.9102 4.39263 12.0341 4.13946 12.3174 3.98633C12.517 3.87844 12.7285 3.86432 12.8271 3.8584C12.9489 3.8511 13.1009 3.85156 13.2578 3.85156H15.082C15.8486 3.85156 16.4978 4.46371 16.498 5.25293V10.6494C16.498 11.4389 15.8486 12.0508 15.082 12.0508H13.2578Z" stroke="#191919" stroke-width="1.49706"/>
<mask id="path-2-outside-1_65_37521" maskUnits="userSpaceOnUse" x="1.16003" y="3.08984" width="12" height="15" fill="black">
<rect fill="white" x="1.16003" y="3.08984" width="12" height="15"/>
<path fill-rule="evenodd" clip-rule="evenodd" d="M4.45837 11.4037H6.92167C6.92167 11.4037 6.454 11.9173 6.454 13.3615C6.454 14.8057 7.23048 15.5986 8.13605 15.9932C8.89085 16.3221 9.2847 15.7445 9.2847 15.2631C9.2847 14.8158 9.34848 12.8306 10.7989 11.6569C11.0218 11.4767 11.1573 11.2133 11.16 10.9305L11.1548 5.21709C11.1582 4.87705 10.8772 4.59972 10.5295 4.59972H6.65262C5.84359 4.59972 5.09904 5.0278 4.70187 5.71709C3.82802 7.23336 3.57378 9.23385 3.50169 10.4133C3.46879 10.951 3.90738 11.4037 4.45837 11.4037"/>
</mask>
<path d="M6.92167 11.4037L8.02854 12.4117L10.3098 9.90665H6.92167V11.4037ZM8.13605 15.9932L8.73412 14.6208L8.73411 14.6208L8.13605 15.9932ZM10.7989 11.6569L9.85741 10.493L9.85725 10.4931L10.7989 11.6569ZM11.16 10.9305L12.657 10.9452L12.6571 10.9372L12.6571 10.9292L11.16 10.9305ZM11.1548 5.21709L9.65785 5.20246L9.65777 5.21045L9.65778 5.21845L11.1548 5.21709ZM4.70187 5.71709L5.99894 6.46462L5.999 6.46451L4.70187 5.71709ZM3.50169 10.4133L4.99596 10.5047L4.99596 10.5046L3.50169 10.4133ZM4.45837 11.4037L4.45837 12.9008H6.92167L6.92167 11.4037V9.90665H4.45837V11.4037ZM6.92167 11.4037C5.81481 10.3957 5.81412 10.3965 5.81343 10.3972C5.81319 10.3975 5.8125 10.3983 5.81204 10.3988C5.8111 10.3998 5.81016 10.4008 5.80922 10.4019C5.80733 10.404 5.80542 10.4061 5.80347 10.4083C5.79959 10.4127 5.79561 10.4172 5.79153 10.4219C5.78338 10.4312 5.77484 10.4412 5.76595 10.4519C5.74816 10.4733 5.729 10.4973 5.70872 10.524C5.66814 10.5775 5.62329 10.6418 5.57627 10.7176C5.48197 10.8697 5.38058 11.0657 5.28771 11.3111C5.10099 11.8044 4.95694 12.4752 4.95694 13.3615H6.454H7.95106C7.95106 12.8035 8.04085 12.4954 8.08797 12.3709C8.11201 12.3074 8.12754 12.2848 8.12092 12.2954C8.11775 12.3005 8.10944 12.3134 8.09443 12.3332C8.08695 12.3431 8.07783 12.3546 8.0669 12.3677C8.06143 12.3743 8.05552 12.3813 8.04913 12.3886C8.04594 12.3923 8.04263 12.396 8.03919 12.3999C8.03748 12.4018 8.03573 12.4037 8.03396 12.4057C8.03307 12.4067 8.03217 12.4077 8.03127 12.4087C8.03082 12.4092 8.03013 12.4099 8.02991 12.4102C8.02922 12.4109 8.02854 12.4117 6.92167 11.4037ZM6.454 13.3615H4.95694C4.95694 14.3672 5.23276 15.2384 5.73931 15.944C6.23685 16.6371 6.89546 17.0856 7.53798 17.3656L8.13605 15.9932L8.73411 14.6208C8.47107 14.5062 8.28865 14.361 8.17156 14.1979C8.06348 14.0474 7.95106 13.8 7.95106 13.3615H6.454ZM8.13605 15.9932L7.53797 17.3656C8.35258 17.7206 9.26601 17.6636 9.96157 17.0739C10.5515 16.5737 10.7818 15.8558 10.7818 15.2631H9.2847H7.78764C7.78764 15.1518 7.82094 14.9634 8.02528 14.7901C8.14528 14.6884 8.30336 14.6155 8.4735 14.5972C8.6361 14.5796 8.73183 14.6198 8.73412 14.6208L8.13605 15.9932ZM9.2847 15.2631H10.7818C10.7818 15.1079 10.7937 14.6525 10.9387 14.139C11.0842 13.6234 11.3345 13.1493 11.7406 12.8207L10.7989 11.6569L9.85725 10.4931C8.81291 11.3382 8.30609 12.4436 8.05712 13.3258C7.80754 14.2101 7.78764 14.9709 7.78764 15.2631H9.2847ZM10.7989 11.6569L11.7405 12.8208C12.2849 12.3804 12.6496 11.7069 12.657 10.9452L11.16 10.9305L9.66305 10.9159C9.66497 10.7197 9.7587 10.5729 9.85741 10.493L10.7989 11.6569ZM11.16 10.9305L12.6571 10.9292L12.6519 5.21573L11.1548 5.21709L9.65778 5.21845L9.66298 10.9319L11.16 10.9305ZM11.1548 5.21709L12.6518 5.23172C12.6636 4.02719 11.6774 3.10266 10.5295 3.10266V4.59972V6.09678C10.077 6.09678 9.65273 5.72691 9.65785 5.20246L11.1548 5.21709ZM10.5295 4.59972V3.10266H6.65262V4.59972L6.65262 6.09678H10.5295V4.59972ZM6.65262 4.59972V3.10266C5.31616 3.10266 4.07307 3.80978 3.40473 4.96968L4.70187 5.71709L5.999 6.46451C6.12501 6.24582 6.37102 6.09678 6.65262 6.09678L6.65262 4.59972ZM4.70187 5.71709L3.4048 4.96957C2.34878 6.80192 2.08226 9.09763 2.00742 10.3219L3.50169 10.4133L4.99596 10.5046C5.06531 9.37007 5.30725 7.6648 5.99894 6.46462L4.70187 5.71709ZM3.50169 10.4133L2.00742 10.3219C1.91944 11.7603 3.08476 12.9008 4.45837 12.9008L4.45837 11.4037V9.90665C4.73 9.90665 5.01815 10.1418 4.99596 10.5047L3.50169 10.4133Z" fill="#191919" mask="url(#path-2-outside-1_65_37521)"/>
</svg>
